REM MD5 117322f6ceba1de1081a60aeaf6a661c
FILE "Creature Shock (Japan) (Disc 1).bin" BINARY
  TRACK 01 MODE2/2352
    INDEX 01 00:00:00
  TRACK 02 AUDIO
    INDEX 00 54:51:16
    INDEX 01 54:53:16
  TRACK 03 AUDIO
    INDEX 00 57:26:28
    INDEX 01 57:28:28
REM LEADOUT 60:35:16
